<svg width="16" height="19" viewBox="0 0 16 19" fill="none" xmlns="http://www.w3.org/2000/svg">
<path d="M15.8109 13.9002C15.3797 14.858 15.1719 15.2861 14.6172 16.1315C13.8406 17.3127 12.7453 18.7877 11.3922 18.7971C10.1875 18.808 9.87656 18.0111 8.24063 18.0252C6.60625 18.033 6.26563 18.8127 5.05938 18.8002C3.70469 18.7877 2.66875 17.4596 1.89219 16.2799C-0.279686 12.9721 -0.509374 9.09396 0.832814 7.03146C1.78281 5.56896 3.28438 4.70958 4.69531 4.70958C6.13281 4.70958 7.03594 5.49865 8.22344 5.49865C9.37656 5.49865 10.0781 4.70802 11.7406 4.70802C12.9969 4.70802 14.325 5.3924 15.275 6.57365C12.1688 8.27677 12.6734 12.7127 15.8109 13.9002V13.9002ZM10.4781 3.38771C11.0828 2.61114 11.5422 1.51583 11.375 0.400208C10.3891 0.467395 9.23594 1.09708 8.5625 1.91271C7.95157 2.65646 7.44532 3.75958 7.64219 4.82677C8.71875 4.86115 9.83281 4.21896 10.4781 3.38771H10.4781Z" fill="white"/>
</svg>
