<svg width="14" height="13" viewBox="0 0 14 13" fill="none" xmlns="http://www.w3.org/2000/svg">
<path d="M1.66683 0.5C0.931496 0.5 0.333496 1.098 0.333496 1.83333V12.5H9.66683H13.6668V4.5C13.6668 3.77129 13.0622 3.16667 12.3335 3.16667H9.66683V1.83333C9.66683 1.098 9.06883 0.500001 8.3335 0.500001L1.66683 0.5ZM3.00016 3.16667H4.33349V4.5H3.00016V3.16667ZM5.66683 3.16667H7.00016V4.5H5.66683V3.16667ZM9.66683 4.5H12.3335V11.1667H9.66683V9.83333H11.0002V8.5H9.66683V7.16667H11.0002V5.83333H9.66683V4.5ZM3.00016 5.83333H4.33349V7.16667H3.00016V5.83333ZM5.66683 5.83333H7.00016V7.16667H5.66683V5.83333ZM3.00016 8.5H4.33349V9.83333H3.00016V8.5ZM5.66683 8.5H7.00016V9.83333H5.66683V8.5Z" fill="#051534" fill-opacity="0.4"/>
</svg>
