<svg width="22" height="22" viewBox="0 0 22 22" fill="none" xmlns="http://www.w3.org/2000/svg">
<g clip-path="url(#clip0_241_814)">
<path d="M22 11.0002C22 4.92505 17.0751 0.000183105 11 0.000183105C4.92486 0.000183105 0 4.92505 0 11.0002C0 16.4905 4.02252 21.0413 9.28125 21.8666V14.1799H6.48828V11.0002H9.28125V8.57675C9.28125 5.81987 10.9235 4.29706 13.4361 4.29706C14.6392 4.29706 15.8984 4.5119 15.8984 4.5119V7.21893H14.5114C13.145 7.21893 12.7188 8.06692 12.7188 8.93768V11.0002H15.7695L15.2818 14.1799H12.7188V21.8666C17.9775 21.0413 22 16.4905 22 11.0002Z" fill="white"/>
</g>
<defs>
<clipPath id="clip0_241_814">
<rect width="22" height="22" fill="white"/>
</clipPath>
</defs>
</svg>
