<svg width="17" height="20" viewBox="0 0 17 20" fill="none" xmlns="http://www.w3.org/2000/svg">
<path d="M0.85 0.800171L9.5125 9.40017L11.8875 7.02517L1.3875 0.962671C1.2125 0.861108 1.025 0.804858 0.85 0.800171ZM0.125 1.20017C0.0468754 1.33923 0 1.5033 0 1.68767V18.4002C0 18.5345 0.0281254 18.6549 0.0749998 18.7627L8.9375 9.96267L0.125 1.20017ZM12.6125 7.43767L10.075 9.96267L12.6125 12.4752L15.7125 10.7002C16.1531 10.4455 16.2156 10.122 16.2125 9.95017C16.2078 9.6658 16.0281 9.40017 15.725 9.23767C15.4609 9.09548 13.5 7.9533 12.6125 7.43767ZM9.5125 10.5252L0.775 19.1877C0.920313 19.1799 1.07813 19.1486 1.225 19.0627C1.56719 18.8642 8.4875 14.8627 8.4875 14.8627L11.9 12.9002L9.5125 10.5252Z" fill="white"/>
</svg>
