<svg width="22" height="22" viewBox="0 0 22 22" fill="none" xmlns="http://www.w3.org/2000/svg">
<path d="M11.0064 1.98143C13.9472 1.98143 14.2955 1.99432 15.452 2.0459C16.5269 2.09317 17.1073 2.27367 17.4942 2.42409C18.0059 2.62179 18.3756 2.86246 18.7583 3.24496C19.1452 3.63175 19.3817 3.99706 19.5794 4.50849C19.7299 4.89528 19.9105 5.47977 19.9578 6.5499C20.0094 7.71028 20.0223 8.0584 20.0223 10.9937C20.0223 13.9334 20.0094 14.2815 19.9578 15.4376C19.9105 16.512 19.7299 17.0922 19.5794 17.479C19.3817 17.9904 19.1409 18.36 18.7583 18.7425C18.3713 19.1293 18.0059 19.3657 17.4942 19.5634C17.1073 19.7138 16.5226 19.8943 15.452 19.9416C14.2912 19.9932 13.9429 20.006 11.0064 20.006C8.06566 20.006 7.71741 19.9932 6.56088 19.9416C5.48603 19.8943 4.90561 19.7138 4.51866 19.5634C4.00704 19.3657 3.63729 19.125 3.25464 18.7425C2.8677 18.3557 2.63123 17.9904 2.43346 17.479C2.28298 17.0922 2.1024 16.5077 2.05511 15.4376C2.00352 14.2772 1.99062 13.9291 1.99062 10.9937C1.99062 8.0541 2.00352 7.70598 2.05511 6.5499C2.1024 5.47547 2.28298 4.89528 2.43346 4.50849C2.63123 3.99706 2.872 3.62745 3.25464 3.24496C3.64159 2.85816 4.00704 2.62179 4.51866 2.42409C4.90561 2.27367 5.49033 2.09317 6.56088 2.0459C7.71741 1.99432 8.06566 1.98143 11.0064 1.98143ZM11.0064 0.000183105C8.01837 0.000183105 7.64432 0.0130762 6.47059 0.0646488C5.30115 0.116221 4.49717 0.305321 3.80066 0.576077C3.07407 0.859726 2.45925 1.23363 1.84874 1.8482C1.23393 2.45848 0.859879 3.07305 0.576119 3.79507C0.305257 4.49559 0.116084 5.29497 0.0644909 6.46395C0.0128982 7.64152 0 8.01542 0 11.0023C0 13.9892 0.0128982 14.3631 0.0644909 15.5364C0.116084 16.7054 0.305257 17.5091 0.576119 18.2053C0.859879 18.9316 1.23393 19.5462 1.84874 20.1565C2.45925 20.7667 3.07407 21.1449 3.79637 21.4243C4.49717 21.695 5.29685 21.8841 6.46629 21.9357C7.64002 21.9873 8.01407 22.0002 11.0021 22.0002C13.9902 22.0002 14.3643 21.9873 15.538 21.9357C16.7074 21.8841 17.5114 21.695 18.2079 21.4243C18.9302 21.1449 19.545 20.7667 20.1556 20.1565C20.7661 19.5462 21.1444 18.9316 21.4239 18.2096C21.6947 17.5091 21.8839 16.7097 21.9355 15.5407C21.9871 14.3674 22 13.9935 22 11.0066C22 8.01972 21.9871 7.64582 21.9355 6.47254C21.8839 5.30356 21.6947 4.49989 21.4239 3.80366C21.153 3.07305 20.779 2.45848 20.1642 1.8482C19.5536 1.23792 18.9388 0.859726 18.2165 0.580375C17.5157 0.309619 16.716 0.120519 15.5466 0.0689465C14.3686 0.0130763 13.9945 0.000183105 11.0064 0.000183105Z" fill="white"/>
<path d="M11.0065 5.35083C7.88516 5.35083 5.35281 7.88218 5.35281 11.0023C5.35281 14.1225 7.88516 16.6538 11.0065 16.6538C14.1279 16.6538 16.6602 14.1225 16.6602 11.0023C16.6602 7.88218 14.1279 5.35083 11.0065 5.35083ZM11.0065 14.6683C8.9815 14.6683 7.33913 13.0265 7.33913 11.0023C7.33913 8.9781 8.9815 7.33637 11.0065 7.33637C13.0315 7.33637 14.6739 8.9781 14.6739 11.0023C14.6739 13.0265 13.0315 14.6683 11.0065 14.6683Z" fill="white"/>
<path d="M18.2037 5.12738C18.2037 5.858 17.6104 6.44678 16.8838 6.44678C16.1529 6.44678 15.5639 5.8537 15.5639 5.12738C15.5639 4.39677 16.1572 3.80798 16.8838 3.80798C17.6104 3.80798 18.2037 4.40107 18.2037 5.12738Z" fill="white"/>
</svg>
