<svg width="104" height="24" viewBox="0 0 104 24" fill="none" xmlns="http://www.w3.org/2000/svg">
<path d="M0 24V12C0 5.37357 5.37475 0 12.0025 0V12C12.0025 18.6264 6.62776 24 0 24Z" fill="#0072EC"/>
<path d="M24.0001 24V12C24.0001 5.37357 18.6254 0 11.9976 0V12C12.0023 18.6264 17.3724 24 24.0001 24Z" fill="#0F8FF9"/>
<path d="M47.912 21H44.552L43.436 17.4H36.932L35.84 21H32.48L37.76 3.71997H42.632L47.912 21ZM40.16 6.77997L37.856 14.352H42.5L40.16 6.77997Z" fill="#2C3038"/>
<path d="M58.1748 3.71997H61.4628V21H58.5828V20.256C57.6148 20.992 56.4468 21.36 55.0788 21.36C53.9108 21.36 52.8708 21.064 51.9588 20.472C51.0548 19.872 50.3508 19.052 49.8468 18.012C49.3508 16.972 49.1028 15.808 49.1028 14.52C49.1028 13.208 49.3548 12.032 49.8588 10.992C50.3708 9.95197 51.0908 9.13997 52.0188 8.55597C52.9548 7.97197 54.0308 7.67997 55.2468 7.67997C56.3588 7.67997 57.3348 7.94397 58.1748 8.47197V3.71997ZM55.6068 18.456C57.5908 18.456 58.5828 17.144 58.5828 14.52C58.5828 13.288 58.3508 12.324 57.8868 11.628C57.4308 10.932 56.7108 10.584 55.7268 10.584C55.0228 10.584 54.4348 10.76 53.9628 11.112C53.4908 11.456 53.1388 11.924 52.9068 12.516C52.6748 13.108 52.5588 13.776 52.5588 14.52C52.5588 15.68 52.8148 16.628 53.3268 17.364C53.8388 18.092 54.5988 18.456 55.6068 18.456Z" fill="#2C3038"/>
<path d="M67.3788 15.432C67.4988 16.36 67.8148 17.072 68.3268 17.568C68.8468 18.064 69.5428 18.312 70.4148 18.312C71.0468 18.312 71.5908 18.172 72.0468 17.892C72.5108 17.612 72.8628 17.208 73.1028 16.68L76.3668 17.616C76.0468 18.392 75.5948 19.064 75.0108 19.632C74.4268 20.192 73.7548 20.62 72.9948 20.916C72.2348 21.212 71.4388 21.36 70.6068 21.36C69.2948 21.36 68.1268 21.076 67.1028 20.508C66.0868 19.94 65.2908 19.148 64.7148 18.132C64.1468 17.116 63.8628 15.968 63.8628 14.688C63.8628 13.296 64.1388 12.072 64.6908 11.016C65.2508 9.95197 66.0268 9.13197 67.0188 8.55597C68.0108 7.97197 69.1428 7.67997 70.4148 7.67997C71.6628 7.67997 72.7468 7.95597 73.6668 8.50797C74.5868 9.05997 75.2908 9.84397 75.7788 10.86C76.2748 11.876 76.5228 13.068 76.5228 14.436C76.5228 14.652 76.5068 14.984 76.4748 15.432H67.3788ZM70.5588 10.512C68.8388 10.512 67.8068 11.344 67.4628 13.008H73.1748C73.0628 12.136 72.7948 11.504 72.3708 11.112C71.9548 10.712 71.3508 10.512 70.5588 10.512Z" fill="#2C3038"/>
<path d="M84.0084 21.36C82.3764 21.36 81.0564 20.992 80.0484 20.256C79.0484 19.52 78.4404 18.472 78.2244 17.112L81.5604 16.608C81.6964 17.224 81.9964 17.704 82.4604 18.048C82.9324 18.384 83.5284 18.552 84.2484 18.552C84.8324 18.552 85.2844 18.44 85.6044 18.216C85.9324 17.984 86.0964 17.664 86.0964 17.256C86.0964 16.984 86.0284 16.776 85.8924 16.632C85.7644 16.48 85.4924 16.332 85.0764 16.188C84.6684 16.044 83.9684 15.84 82.9764 15.576C81.9044 15.304 81.0564 15 80.4324 14.664C79.8084 14.328 79.3564 13.928 79.0764 13.464C78.7964 13 78.6564 12.432 78.6564 11.76C78.6564 10.936 78.8684 10.216 79.2924 9.59997C79.7164 8.98397 80.3164 8.51197 81.0924 8.18397C81.8684 7.84797 82.7764 7.67997 83.8164 7.67997C84.8244 7.67997 85.7204 7.83597 86.5044 8.14797C87.2964 8.45997 87.9324 8.90797 88.4124 9.49197C88.9004 10.068 89.2004 10.744 89.3124 11.52L85.9764 12.12C85.9204 11.64 85.7124 11.26 85.3524 10.98C84.9924 10.7 84.5044 10.536 83.8884 10.488L83.6364 10.476C83.1084 10.476 82.6844 10.576 82.3644 10.776C82.0524 10.976 81.8964 11.248 81.8964 11.592C81.8964 11.824 81.9764 12.016 82.1364 12.168C82.2964 12.312 82.6084 12.464 83.0724 12.624C83.5364 12.776 84.2964 12.984 85.3524 13.248C86.3444 13.504 87.1364 13.804 87.7284 14.148C88.3204 14.484 88.7524 14.888 89.0244 15.36C89.2964 15.832 89.4324 16.408 89.4324 17.088C89.4324 17.968 89.2164 18.732 88.7844 19.38C88.3524 20.02 87.7284 20.512 86.9124 20.856C86.0964 21.192 85.1284 21.36 84.0084 21.36Z" fill="#2C3038"/>
<path d="M103.793 21H100.313L96.1614 15.444L94.9014 16.74V21H91.8054L91.8294 3.71997H94.9014V12.72L99.5934 8.03997H103.397L98.1413 13.428L103.793 21Z" fill="#2C3038"/>
</svg>
