<svg width="33" height="24" viewBox="0 0 33 24" fill="none" xmlns="http://www.w3.org/2000/svg">
<path d="M20.8431 4.13837H12.1338V19.8623H20.8431V4.13837Z" fill="#FF5F00"/>
<path d="M12.6866 12.0002C12.6853 10.4858 13.0268 8.99103 13.6855 7.62893C14.3441 6.26683 15.3026 5.07312 16.4883 4.13818C15.0199 2.97864 13.2565 2.25754 11.3995 2.0573C9.54253 1.85705 7.66693 2.18574 5.9871 3.00581C4.30727 3.82588 2.89098 5.10424 1.90011 6.69476C0.909245 8.28528 0.383789 10.1238 0.383789 12.0002C0.383789 13.8765 0.909245 15.715 1.90011 17.3056C2.89098 18.8961 4.30727 20.1744 5.9871 20.9945C7.66693 21.8146 9.54253 22.1433 11.3995 21.943C13.2565 21.7428 15.0199 21.0217 16.4883 19.8621C15.3026 18.9272 14.3441 17.7335 13.6855 16.3714C13.0268 15.0093 12.6853 13.5145 12.6866 12.0002Z" fill="#EB001B"/>
<path d="M32.5923 12.0002C32.5924 13.8765 32.067 15.715 31.0761 17.3055C30.0853 18.8961 28.6691 20.1744 26.9893 20.9945C25.3095 21.8146 23.4339 22.1433 21.577 21.943C19.72 21.7428 17.9566 21.0217 16.4883 19.8621C17.673 18.9263 18.6307 17.7324 19.2892 16.3705C19.9477 15.0086 20.2899 13.5143 20.2899 12.0002C20.2899 10.4861 19.9477 8.99174 19.2892 7.62985C18.6307 6.26796 17.673 5.07406 16.4883 4.13818C17.9566 2.97864 19.72 2.25753 21.577 2.05729C23.4339 1.85705 25.3095 2.18576 26.9893 3.00584C28.6691 3.82591 30.0853 5.10427 31.0761 6.69479C32.067 8.28532 32.5924 10.1238 32.5923 12.0002Z" fill="#F79E1B"/>
<path d="M31.6427 18.1969V17.875H31.7719V17.8094H31.4429V17.875H31.5721V18.1969H31.6427ZM32.2815 18.1969V17.8088H32.1807L32.0647 18.0757L31.9486 17.8088H31.8477V18.1969H31.9189V17.9041L32.0277 18.1566H32.1016L32.2104 17.9035V18.1969H32.2815Z" fill="#F79E1B"/>
</svg>
