<svg width="22" height="22" viewBox="0 0 22 22" fill="none" xmlns="http://www.w3.org/2000/svg">
<path fill-rule="evenodd" clip-rule="evenodd" d="M22 11.0002C22 17.0753 17.0751 22.0002 11 22.0002C4.92487 22.0002 0 17.0753 0 11.0002C0 4.92505 4.92487 0.000183105 11 0.000183105C17.0751 0.000183105 22 4.92505 22 11.0002ZM11.3942 8.12087C10.3243 8.56588 8.18596 9.48695 4.97924 10.8841C4.45851 11.0911 4.18574 11.2937 4.1609 11.4918C4.11894 11.8266 4.53815 11.9584 5.10901 12.1379C5.18667 12.1623 5.26712 12.1876 5.34961 12.2144C5.91125 12.397 6.66676 12.6106 7.05951 12.619C7.41578 12.6267 7.81342 12.4799 8.25242 12.1784C11.2486 10.1559 12.7952 9.13368 12.8923 9.11164C12.9608 9.09609 13.0557 9.07654 13.12 9.13371C13.1844 9.19088 13.178 9.29914 13.1712 9.32819C13.1297 9.50523 11.4841 11.0351 10.6325 11.8268C10.367 12.0736 10.1787 12.2487 10.1402 12.2887C10.054 12.3783 9.96611 12.463 9.88165 12.5444C9.35987 13.0474 8.96859 13.4246 9.90331 14.0406C10.3525 14.3366 10.7119 14.5814 11.0705 14.8256C11.4622 15.0923 11.8528 15.3583 12.3581 15.6895C12.4869 15.7739 12.6099 15.8616 12.7296 15.947C13.1854 16.2719 13.5949 16.5638 14.1007 16.5173C14.3946 16.4902 14.6983 16.2138 14.8525 15.3895C15.2169 13.4414 15.9332 9.22043 16.0987 7.48108C16.1132 7.32869 16.095 7.13366 16.0803 7.04804C16.0657 6.96243 16.035 6.84045 15.9238 6.75015C15.792 6.64321 15.5885 6.62066 15.4975 6.62226C15.0838 6.62955 14.449 6.85027 11.3942 8.12087Z" fill="white"/>
</svg>
