<svg width="104" height="24" viewBox="0 0 104 24" fill="none" xmlns="http://www.w3.org/2000/svg">
<path d="M4.18019 9.92668H0V7.47809H11.3643V9.90755H7.20426V16.6029H4.17514L4.18019 9.92668Z" fill="white"/>
<path d="M22.9953 7.47809V16.5646H20.0671V11.304L15.0186 16.5981H12.4388V7.47809H15.3669V12.7913L20.4104 7.47809H22.9953Z" fill="white"/>
<path d="M28.0394 16.5981H25.1113V7.47809H28.0394V10.8258H32.7447V7.47809H35.6728V16.5646H32.7447V13.217H28.0394V16.5981Z" fill="white"/>
<path d="M37.7884 16.5981V7.47809H40.7165V9.92668H43.7457C44.469 9.89116 45.1934 9.97531 45.8862 10.1754C46.5481 10.3908 47.1184 10.8037 47.5116 11.352C47.9048 11.9004 48.0997 12.5548 48.0672 13.217C48.0926 13.9376 47.8557 14.6445 47.396 15.2193C46.9364 15.794 46.2821 16.2015 45.5429 16.3734C44.9438 16.5244 44.3252 16.5952 43.7053 16.5838L37.7884 16.5981ZM40.7165 14.3982H43.2408C43.6302 14.4313 44.0225 14.3856 44.3919 14.2643C44.6076 14.1758 44.7913 14.0295 44.9205 13.8435C45.0496 13.6574 45.1186 13.4397 45.1189 13.217C45.1238 12.995 45.0512 12.7776 44.9125 12.5987C44.7737 12.4197 44.5766 12.2891 44.3515 12.227C43.9847 12.1252 43.602 12.0847 43.2206 12.1075H40.6963L40.7165 14.3982Z" fill="white"/>
<path d="M52.3431 16.5981H49.415V7.47809H52.3431V10.9214H53.1458L56.6798 7.49722H60.3552L55.6701 11.854L60.5369 16.5981H56.6394L53.1458 13.1548H52.3431V16.5981Z" fill="white"/>
<path d="M72.9155 12.065C72.9155 14.7814 70.5528 16.8857 66.6352 16.8857C62.7175 16.8857 60.3346 14.7814 60.3346 12.065C60.3346 9.34862 62.6973 7.24915 66.6402 7.24915C70.5831 7.24915 72.9155 9.3534 72.9155 12.065ZM69.846 12.065C69.846 10.5777 68.5738 9.48731 66.6352 9.48731C64.6965 9.48731 63.4243 10.5777 63.4243 12.065C63.4243 13.5523 64.6763 14.6523 66.6402 14.6523C68.6041 14.6523 69.846 13.5571 69.846 12.065Z" fill="white"/>
<path d="M88.4651 12.0456C88.4651 14.6472 86.264 16.0054 82.5684 16.082V17.0002H79.6403V16.0867C75.965 16.0102 73.7638 14.652 73.7638 12.0504C73.7638 9.44877 75.965 7.98057 79.6403 7.90406V7.00018H82.5684V7.9184C86.264 7.95666 88.4651 9.44877 88.4651 12.0456ZM79.6403 9.86962C77.6209 9.94614 76.7323 10.8261 76.7323 12.0456C76.7323 13.2651 77.6209 14.0542 79.6403 14.1307V9.86962ZM85.4764 12.0456C85.4764 10.8261 84.6081 9.94614 82.5684 9.86962V14.1307C84.6081 14.0542 85.4764 13.2699 85.4764 12.0456Z" fill="white"/>
<path d="M104 12.0456C104 14.6472 101.799 16.0054 98.1033 16.082V17.0002H95.1751V16.0867C91.4998 16.0102 89.2986 14.652 89.2986 12.0504C89.2986 9.44877 91.4998 7.98057 95.1751 7.90406V7.00018H98.1033V7.9184C101.814 7.95666 104 9.44877 104 12.0456ZM95.1903 9.86962C93.1709 9.94614 92.2823 10.8261 92.2823 12.0456C92.2823 13.2651 93.1709 14.0542 95.1903 14.1307V9.86962ZM101.026 12.0456C101.026 10.8261 100.158 9.94614 98.1184 9.86962V14.1307C100.158 14.0542 101.026 13.2699 101.026 12.0456Z" fill="white"/>
</svg>
