<svg width="49" height="24" viewBox="0 0 49 24" fill="none" xmlns="http://www.w3.org/2000/svg">
<path d="M18.6018 4.30503L12.19 19.7573H8.00677L4.85148 7.42567C4.65992 6.66612 4.49336 6.38786 3.91077 6.06786C2.95959 5.54664 1.38883 5.05762 0.00683594 4.75411L0.100704 4.30503H6.83444C7.69277 4.30503 8.46437 4.88216 8.65925 5.88055L10.3257 14.822L14.4441 4.30477H18.6018V4.30503ZM34.9925 14.7122C35.0093 10.6339 29.4094 10.4092 29.4479 8.58741C29.4599 8.03295 29.9825 7.44345 31.1266 7.29298C31.6936 7.21801 33.2559 7.16081 35.0279 7.98451L35.723 4.70773C34.7708 4.35862 33.5457 4.02264 32.0214 4.02264C28.1098 4.02264 25.357 6.123 25.3338 9.13053C25.3085 11.3551 27.2986 12.5964 28.798 13.3356C30.3404 14.0926 30.858 14.579 30.8521 15.2561C30.8411 16.2927 29.6219 16.7502 28.4824 16.7683C26.4934 16.7992 25.3391 16.2246 24.4191 15.7926L23.7018 19.1778C24.6265 19.6063 26.3332 19.9801 28.1026 19.9989C32.2601 19.9989 34.9797 17.9246 34.9925 14.7122ZM45.3215 19.7573H48.9816L45.7868 4.30503H42.4085C41.6489 4.30503 41.0082 4.75179 40.7245 5.43868L34.7861 19.7573H38.9416L39.7665 17.4492H44.8437L45.3215 19.7573ZM40.9059 14.2822L42.9888 8.48049L44.1877 14.2822H40.9059ZM24.2561 4.30503L20.9837 19.7573H17.0265L20.3001 4.30503H24.2561Z" fill="white"/>
</svg>
