<svg width="22" height="22" viewBox="0 0 22 22" fill="none" xmlns="http://www.w3.org/2000/svg">
<path fill-rule="evenodd" clip-rule="evenodd" d="M1.54648 1.54666C0 3.09314 0 5.58213 0 10.5602V11.4402C0 16.4182 0 18.9072 1.54648 20.4537C3.09295 22.0002 5.58195 22.0002 10.56 22.0002H11.44C16.4181 22.0002 18.907 22.0002 20.4535 20.4537C22 18.9072 22 16.4182 22 11.4402V10.5602C22 5.58213 22 3.09314 20.4535 1.54666C18.907 0.000183105 16.4181 0.000183105 11.44 0.000183105H10.56C5.58195 0.000183105 3.09295 0.000183105 1.54648 1.54666ZM3.71255 6.6919C3.83172 12.4119 6.69171 15.8494 11.7059 15.8494H11.9901V12.5769C13.8326 12.7602 15.2258 14.1077 15.785 15.8494H18.3884C17.6734 13.2461 15.7941 11.8069 14.6208 11.2569C15.7941 10.5786 17.4441 8.92856 17.8383 6.6919H15.4732C14.9599 8.5069 13.4384 10.1569 11.9901 10.3127V6.6919H9.625V13.0352C8.15833 12.6686 6.30671 10.8902 6.22421 6.6919H3.71255Z" fill="white"/>
</svg>
