<svg width="22" height="16" viewBox="0 0 22 16" fill="none" xmlns="http://www.w3.org/2000/svg">
<path fill-rule="evenodd" clip-rule="evenodd" d="M20.8292 1.39611C21.1705 1.7415 21.4156 2.17095 21.54 2.64151C22 4.37829 22 8.00016 22 8.00016C22 8.00016 22 11.622 21.54 13.3588C21.4156 13.8294 21.1705 14.2588 20.8292 14.6042C20.4878 14.9496 20.0622 15.1988 19.595 15.3268C17.875 15.7918 11 15.7918 11 15.7918C11 15.7918 4.125 15.7918 2.405 15.3268C1.93777 15.1988 1.51219 14.9496 1.17085 14.6042C0.829506 14.2588 0.58438 13.8294 0.46 13.3588C0 11.622 0 8.00016 0 8.00016C0 8.00016 0 4.37829 0.46 2.64151C0.58438 2.17095 0.829506 1.7415 1.17085 1.39611C1.51219 1.05073 1.93777 0.801543 2.405 0.673483C4.125 0.208496 11 0.208496 11 0.208496C11 0.208496 17.875 0.208496 19.595 0.673483C20.0622 0.801543 20.4878 1.05073 20.8292 1.39611ZM14.5 8.00019L8.74996 4.71135V11.289L14.5 8.00019Z" fill="white"/>
</svg>
